<?xml version="1.0" standalone="no"?> <!DOCTYPE svg PUBLIC "-//W3C//DTD SVG 20010904//EN" "http://www.w3.org/TR/2001/REC-SVG-20010904/DTD/svg10.dtd"> <svg version="1.0" xmlns="http://www.w3.org/2000/svg" width="133.000000pt" height="133.000000pt" viewBox="0 0 133.000000 133.000000" preserveAspectRatio="xMidYMid meet"> <g transform="translate(0.000000,133.000000) scale(0.100000,-0.100000)" fill="#4fc425" stroke="none"> <path d="M1215 1108 c-60 -14 -111 -27 -112 -27 -2 -1 14 -16 35 -35 l37 -35 -195 -198 -195 -199 -71 69 -71 68 -53 -58 c-29 -32 -122 -131 -208 -220 l-154 -163 28 -34 c16 -19 34 -35 39 -35 6 0 87 81 180 180 l170 180 67 -70 67 -70 204 207 c112 114 217 222 234 241 l29 34 37 -37 c47 -46 48 -42 45 110 l-3 120 -110 -28z"/> <path d="M525 953 c-222 -98 -349 -153 -432 -189 -109 -46 -124 -75 -58 -107 l35 -17 0 -75 c0 -54 -5 -83 -17 -101 -14 -22 -14 -31 -5 -59 10 -25 10 -48 0 -102 -15 -89 -9 -103 39 -103 63 0 65 5 47 100 -11 58 -12 86 -5 93 15 15 14 50 -4 73 -19 25 -21 159 -2 151 6 -3 63 -27 125 -53 102 -42 115 -46 129 -32 17 17 10 21 -208 114 -60 26 -106 50 -102 54 11 10 551 240 564 240 5 0 73 -27 151 -60 110 -48 143 -58 154 -49 22 18 17 26 -23 42 -21 9 -90 38 -153 66 -133 59 -131 59 -235 14z"/> <path d="M1130 755 c-7 -9 -11 -17 -9 -18 2 -1 22 -11 44 -21 l40 -18 -28 -14 c-27 -15 -38 -55 -14 -53 6 0 44 15 82 33 l70 33 -66 30 c-93 43 -104 46 -119 28z"/> <path d="M1060 615 c0 -16 -7 -28 -17 -31 -71 -23 -102 -71 -83 -128 12 -37 43 -57 122 -80 36 -10 62 -24 69 -37 29 -55 -83 -84 -134 -34 -19 20 -31 24 -51 19 -47 -11 -18 -64 50 -90 35 -13 44 -22 44 -40 0 -19 5 -24 25 -24 19 0 25 5 25 23 0 17 9 26 35 36 53 19 75 48 75 97 0 59 -22 81 -109 108 -41 12 -79 30 -85 39 -30 47 71 80 114 37 14 -14 27 -19 45 -14 44 11 25 54 -35 78 -32 13 -40 21 -40 41 0 20 -5 25 -25 25 -20 0 -25 -5 -25 -25z"/> <path d="M230 454 c0 -76 0 -77 20 -59 15 13 20 31 20 66 0 38 -4 51 -20 59 -19 10 -20 8 -20 -66z"/> <path d="M855 252 c-60 -23 -330 -29 -415 -9 -63 15 -90 11 -90 -14 0 -25 118 -43 275 -44 215 0 331 27 296 69 -15 18 -13 18 -66 -2z"/> </g> </svg>